<svg xmlns="http://www.w3.org/2000/svg" width="392.624" height="695" viewBox="0 0 392.624 695">
  <g id="Group_116" data-name="Group 116" transform="translate(-14314.149 20219)">
    <path id="Path_849" data-name="Path 849" d="M5363.62,239.43l5.5-32.2,28.53,9.27-9.99,30.74Z" transform="translate(9276.004 -20219)" fill="#fcc10f"/>
    <path id="Path_850" data-name="Path 850" d="M5411.7,255.05l14.47-29.28-28.52-9.27-9.99,30.74Z" transform="translate(9276.004 -20219)" fill="#f58a1f"/>
    <path id="Path_851" data-name="Path 851" d="M5892.28,685.25a6.64,6.64,0,0,1-8.35,4.28l-71.3-23a6.63,6.63,0,0,1-4.28-8.35l3.17-9.82a6.64,6.64,0,0,1,8.35-4.29l71.29,23a6.64,6.64,0,0,1,4.29,8.35Z" transform="translate(8811.004 -20630)" fill="#83aada"/>
    <path id="Path_852" data-name="Path 852" d="M5766,494.32V503a11.161,11.161,0,0,1-11.161,11.16H5628.9A11.15,11.15,0,0,1,5617.76,503v-8.67Z" transform="translate(8811.004 -20630)" fill="#83aada"/>
    <path id="Path_853" data-name="Path 853" d="M5842.44,804.69,5880,688.26l-63.4-20.45-19.44,60.34a15.61,15.61,0,0,1-28.23,3.23,105.462,105.462,0,0,1-15.39-54.73V514.15H5630.05V677c0,34.86-17.38,67.13-45.84,87.25C5430.27,873,5512,1106,5691.79,1106,5850.58,1106,5934.41,922.12,5842.44,804.69Z" transform="translate(8811.004 -20630)" fill="#9cbde3"/>
    <path id="Path_854" data-name="Path 854" d="M5691.8,892.09v185.22c-106.88,0-173.75-95.11-162-185.22Z" transform="translate(8811.004 -20630)" fill="#e54c9a"/>
    <path id="Path_855" data-name="Path 855" d="M5691.8,1077.31V892.09H5854C5865.56,982.24,5798,1077.31,5691.8,1077.31Z" transform="translate(8811.004 -20630)" fill="#bf3c95"/>
    <path id="Path_856" data-name="Path 856" d="M5766,485.65v8.67H5617.76v-8.67a11.13,11.13,0,0,1,11.14-11.16h125.94A11.15,11.15,0,0,1,5766,485.65Z" transform="translate(8811.004 -20630)" fill="#c3d6ee"/>
    <path id="Path_857" data-name="Path 857" d="M5183.8,103.15l6.18,70.86h36.81V103.15Z" transform="translate(9276.004 -20219)" fill="#d97027"/>
    <path id="Path_858" data-name="Path 858" d="M5269.78,103.15l-6.18,70.86h-36.81V103.15Z" transform="translate(9276.004 -20219)" fill="#ad5626"/>
    <path id="Path_859" data-name="Path 859" d="M5177.14,63.49,5167.87,0h58.92V63.49Z" transform="translate(9276.004 -20219)" fill="#fcc10f"/>
    <path id="Path_860" data-name="Path 860" d="M5276.44,63.49,5285.7,0h-58.91V63.49Z" transform="translate(9276.004 -20219)" fill="#f58a1f"/>
    <path id="Path_861" data-name="Path 861" d="M5360.61,259.68l-8.16,35.27,17.82,5.79,11.15-34.3Z" transform="translate(9276.004 -20219)" fill="#d97027"/>
    <path id="Path_862" data-name="Path 862" d="M5402.23,273.2l-14.13,33.34-17.83-5.8,11.15-34.3Z" transform="translate(9276.004 -20219)" fill="#ad5626"/>
    <path id="Path_863" data-name="Path 863" d="M5589.26,933.38a18.159,18.159,0,1,1-5.318-12.851,18.169,18.169,0,0,1,5.318,12.851Z" transform="translate(8811.004 -20630)" fill="#e77cb0"/>
    <path id="Path_864" data-name="Path 864" d="M5651,933.38a18.16,18.16,0,1,1-5.319-12.851A18.169,18.169,0,0,1,5651,933.38Z" transform="translate(8811.004 -20630)" fill="#e77cb0"/>
    <rect id="Rectangle_98" data-name="Rectangle 98" width="33.34" height="12.47" transform="translate(14486.664 -19820.34)" fill="#3a3a3a"/>
    <rect id="Rectangle_99" data-name="Rectangle 99" width="16.67" height="12.47" transform="translate(14486.664 -19769.4)" fill="#3a3a3a"/>
    <rect id="Rectangle_100" data-name="Rectangle 100" width="33.34" height="12.47" transform="translate(14486.664 -19718.471)" fill="#3a3a3a"/>
    <rect id="Rectangle_101" data-name="Rectangle 101" width="16.67" height="12.47" transform="translate(14486.664 -19667.539)" fill="#3a3a3a"/>
    <rect id="Rectangle_102" data-name="Rectangle 102" width="33.34" height="12.47" transform="translate(14486.664 -19616.609)" fill="#3a3a3a"/>
  </g>
</svg>
