<svg xmlns="http://www.w3.org/2000/svg" width="510.88" height="695" viewBox="0 0 510.88 695">
  <g id="Group_132" data-name="Group 132" transform="translate(-13018.974 16458)">
    <rect id="Rectangle_31" data-name="Rectangle 31" width="28.04" height="670.75" transform="translate(13083.304 -16451.23)" fill="#898580"/>
    <path id="Path_622" data-name="Path 622" d="M4718.81,4867H4239.56v-6.09a28.87,28.87,0,0,1,28.87-28.87H4690a28.87,28.87,0,0,1,28.85,28.87Z" transform="translate(8811.004 -20630)" fill="#51504e"/>
    <rect id="Rectangle_32" data-name="Rectangle 32" width="18.54" height="44.65" transform="translate(13329.624 -15915.561)" fill="#3a3a3a"/>
    <path id="Path_623" data-name="Path 623" d="M4568.16,4683.74c0,31.95-18,47.79-40.27,47.79s-40.24-15.84-40.24-47.79,40.24-67.92,40.24-67.92S4568.16,4651.79,4568.16,4683.74Z" transform="translate(8811.004 -20630)" fill="#fcc10f"/>
    <path id="Path_624" data-name="Path 624" d="M4552.39,4694.88c0,19.45-11,29.09-24.5,29.09s-24.48-9.64-24.48-29.09,24.48-41.33,24.48-41.33S4552.39,4675.44,4552.39,4694.88Z" transform="translate(8811.004 -20630)" fill="#fcec19"/>
    <path id="Path_625" data-name="Path 625" d="M4475.64,4744l-34.09,38.35v49.75h89.12V4744Z" transform="translate(8811.004 -20630)" fill="#ee4823"/>
    <path id="Path_626" data-name="Path 626" d="M4149.25,4371.31v49.75h-83.58v-88.1h49.49Z" transform="translate(9276.004 -20219)" fill="#ed3024"/>
    <path id="Path_627" data-name="Path 627" d="M4664.73,4436c0,77.8-63.29,141.08-141.08,141.08S4382.57,4513.8,4382.57,4436a139.075,139.075,0,0,1,6.16-41h269.85A139.412,139.412,0,0,1,4664.73,4436Z" transform="translate(8811.004 -20630)" fill="#e2e325"/>
    <path id="Path_628" data-name="Path 628" d="M4658.58,4395H4388.73c13.82-45.08,47-80.5,103.51-96.86V4213h62.81v85.19C4611.63,4314.49,4644.78,4350,4658.58,4395Z" transform="translate(8811.004 -20630)" fill="#c3d6ee"/>
    <path id="Path_629" data-name="Path 629" d="M4654.09,4336.81a165.428,165.428,0,0,0-76.29-55.51V4213h-22.75v85.17c73.3,21.39,109.68,78.29,109.68,137.83,0,77.79-63.29,141.08-141.08,141.08s-141.08-63.29-141.08-141.08c0-59.1,35.88-116.3,109.68-137.83V4213H4469.5v68.34a165.346,165.346,0,0,0-76.28,55.509,162.3,162.3,0,0,0-33.4,99.151c0,90.33,73.49,163.83,163.83,163.83s163.83-73.5,163.83-163.83A162.358,162.358,0,0,0,4654.09,4336.81Z" transform="translate(8811.004 -20630)" fill="#598eca"/>
    <rect id="Rectangle_33" data-name="Rectangle 33" width="125.15" height="40.96" transform="translate(13272.074 -16458)" fill="#83aada"/>
    <path id="Path_630" data-name="Path 630" d="M4478.2,4339.5a12.41,12.41,0,1,1-12.41-12.41A12.41,12.41,0,0,1,4478.2,4339.5Z" transform="translate(8811.004 -20630)" fill="#fff"/>
    <path id="Path_631" data-name="Path 631" d="M4519.72,4404.32a33.17,33.17,0,1,1-33.17-33.17A33.17,33.17,0,0,1,4519.72,4404.32Z" transform="translate(8811.004 -20630)" fill="#e2e325"/>
    <path id="Path_632" data-name="Path 632" d="M4579.67,4368.92a17,17,0,1,1-17-17,17,17,0,0,1,17,17Z" transform="translate(8811.004 -20630)" fill="#e2e325"/>
    <path id="Path_633" data-name="Path 633" d="M4544.91,4322.57a12.6,12.6,0,1,1-12.6-12.59A12.6,12.6,0,0,1,4544.91,4322.57Z" transform="translate(8811.004 -20630)" fill="#e2e325"/>
    <path id="Path_634" data-name="Path 634" d="M4525.62,4250a7.75,7.75,0,1,1-7.75-7.75A7.75,7.75,0,0,1,4525.62,4250Z" transform="translate(8811.004 -20630)" fill="#e2e325"/>
    <path id="Path_635" data-name="Path 635" d="M4638.77,4391.82a20.67,20.67,0,1,1-20.67-20.67A20.67,20.67,0,0,1,4638.77,4391.82Z" transform="translate(8811.004 -20630)" fill="#e2e325"/>
    <rect id="Rectangle_34" data-name="Rectangle 34" width="420.64" height="28.05" transform="translate(13018.974 -16400.85)" fill="#898580"/>
    <path id="Path_636" data-name="Path 636" d="M4327.81,4243.18a41.485,41.485,0,1,1,0-.01Z" transform="translate(8811.004 -20630)" fill="#ed3024"/>
    <path id="Path_637" data-name="Path 637" d="M4309.19,4243.18a22.87,22.87,0,1,1-22.87-22.87A22.87,22.87,0,0,1,4309.19,4243.18Z" transform="translate(8811.004 -20630)" fill="#3a3a3a"/>
  </g>
</svg>
