<svg xmlns="http://www.w3.org/2000/svg" width="539.413" height="692" viewBox="0 0 539.413 692">
  <g id="Group_117" data-name="Group 117" transform="translate(-13022.504 20216)">
    <path id="Path_865" data-name="Path 865" d="M4239.82,552.56a28.32,28.32,0,0,0,0,56.64h15.37v432.07a64.737,64.737,0,0,0,64.73,64.73h50.58V552.56Z" transform="translate(8811.004 -20630)" fill="#41b9ea"/>
    <path id="Path_866" data-name="Path 866" d="M4501.18,552.56H4370.5V1106h50.84a64.738,64.738,0,0,0,64.729-64.72V609.2h15.11a28.32,28.32,0,0,0,0-56.64Z" transform="translate(8811.004 -20630)" fill="#00a7da"/>
    <path id="Path_867" data-name="Path 867" d="M4425.65,497.29a34.24,34.24,0,1,1-34.24-34.24,34.24,34.24,0,0,1,34.24,34.24Z" transform="translate(8811.004 -20630)" fill="#f05d22"/>
    <path id="Path_868" data-name="Path 868" d="M4364.4,438.52A24.53,24.53,0,1,1,4339.876,414a24.53,24.53,0,0,1,24.523,24.52Z" transform="translate(8811.004 -20630)" fill="#f05d22"/>
    <rect id="Rectangle_103" data-name="Rectangle 103" width="163.98" height="237.36" transform="translate(13099.514 -20022.42)" fill="#fff"/>
    <path id="Path_869" data-name="Path 869" d="M4288.51,844.94v174.77c0,35.75,29,45.32,64.73,45.32h34.52c35.76,0,64.73-9.57,64.73-45.32V844.94Z" transform="translate(8811.004 -20630)" fill="#f05d22"/>
    <path id="Path_870" data-name="Path 870" d="M4315.35,982.81a34.24,34.24,0,1,0,34.24-34.24,34.24,34.24,0,0,0-34.24,34.24Z" transform="translate(8811.004 -20630)" fill="#fff"/>
    <path id="Path_871" data-name="Path 871" d="M4376.59,924.05a24.53,24.53,0,1,0,24.53-24.53,24.531,24.531,0,0,0-24.53,24.53Z" transform="translate(8811.004 -20630)" fill="#fff"/>
    <path id="Path_872" data-name="Path 872" d="M4686.72,1022.46c-17.78-28.09-26.31-62.93-26.31-62.93a238.166,238.166,0,0,1-19.57,51.16c-12,23-34.419,50.44-14.689,75.87,15.16,19.56,42.75,23.41,61.84,7.1C4711.56,1073.52,4700.75,1044.63,4686.72,1022.46Z" transform="translate(8811.004 -20630)" fill="#f05d22"/>
    <path id="Path_873" data-name="Path 873" d="M4612.72,608.79v31h-23.37a19.69,19.69,0,1,0,0,39.37H4612V860.69l48.11,76.38v-376A47.73,47.73,0,0,0,4612.72,608.79Z" transform="translate(8811.004 -20630)" fill="#41b9ea"/>
    <path id="Path_874" data-name="Path 874" d="M4730.78,639.79h-22.6v-31a47.73,47.73,0,0,0-47.73-47.73h-.39v376l48.12-76.38V679.16h22.6a19.69,19.69,0,1,0,0-39.37Z" transform="translate(8811.004 -20630)" fill="#00a7da"/>
    <path id="Path_875" data-name="Path 875" d="M4692.16,711.64a32.1,32.1,0,1,0-64.2,0l.005,66.09h64.19Z" transform="translate(8811.004 -20630)" fill="#fff"/>
    <path id="Path_876" data-name="Path 876" d="M4628,777.73v39.11a32.1,32.1,0,1,0,64.195,0l0-39.11Z" transform="translate(8811.004 -20630)" fill="#f05d22"/>
  </g>
</svg>
