<svg xmlns="http://www.w3.org/2000/svg" width="480.43" height="841.291" viewBox="0 0 480.43 841.291">
  <g id="Group_135" data-name="Group 135" transform="translate(-9337.004 16608.291)">
    <path id="Path_676" data-name="Path 676" d="M644.38,4180.38a39.748,39.748,0,1,0,0,79.5l16.42,0v147A240.21,240.21,0,0,0,526,4622.79C526,4755.45,633.55,4863,766.21,4863c1.45,0,2.89-.09,4.33-.11V4180.38Z" transform="translate(8811.004 -20630)" fill="#41b9ea"/>
    <path id="Path_677" data-name="Path 677" d="M1006.43,4622.79a240.214,240.214,0,0,0-134.836-215.9l.036-146.982h16.42a39.748,39.748,0,1,0,0-79.5l-117.51,0v682.51C901.2,4860.58,1006.43,4754,1006.43,4622.79Z" transform="translate(8811.004 -20630)" fill="#00a7da"/>
    <path id="Path_678" data-name="Path 678" d="M766.21,4802.51A173.682,173.682,0,0,0,939.9,4628.82l-347.37.01a173.68,173.68,0,0,0,173.68,173.68Z" transform="translate(8811.004 -20630)" fill="#f05d22"/>
    <path id="Path_679" data-name="Path 679" d="M824.11,4465.08V4228.76H708.32v236.32a173.711,173.711,0,0,0-115.79,163.75H939.9a173.7,173.7,0,0,0-115.771-163.743Z" transform="translate(8811.004 -20630)" fill="#fff"/>
    <path id="Path_680" data-name="Path 680" d="M752.07,4568.62a35.928,35.928,0,1,0,0,.007Z" transform="translate(8811.004 -20630)" fill="#f05d22"/>
    <path id="Path_681" data-name="Path 681" d="M833.3,4110.65a36.57,36.57,0,1,1-36.567-36.56,36.57,36.57,0,0,1,36.567,36.56Z" transform="translate(8811.004 -20630)" fill="#f05d22"/>
    <path id="Path_682" data-name="Path 682" d="M824.92,4715.67a36.56,36.56,0,1,1-36.56-36.56A36.56,36.56,0,0,1,824.92,4715.67Z" transform="translate(8811.004 -20630)" fill="#fff"/>
    <path id="Path_683" data-name="Path 683" d="M822.92,4521.68a26.19,26.19,0,1,1-26.187-26.18,26.19,26.19,0,0,1,26.187,26.18Z" transform="translate(8811.004 -20630)" fill="#f05d22"/>
    <path id="Path_684" data-name="Path 684" d="M741.7,4679.11a26.2,26.2,0,1,1-26.2-26.19,26.2,26.2,0,0,1,26.2,26.19Z" transform="translate(8811.004 -20630)" fill="#fff"/>
    <path id="Path_685" data-name="Path 685" d="M788.36,4432.69a26.2,26.2,0,1,1-26.2-26.2,26.2,26.2,0,0,1,26.2,26.2Z" transform="translate(8811.004 -20630)" fill="#f05d22"/>
    <path id="Path_686" data-name="Path 686" d="M767.89,4047.9a26.2,26.2,0,1,1-26.193-26.19,26.2,26.2,0,0,1,26.193,26.19Z" transform="translate(8811.004 -20630)" fill="#f05d22"/>
  </g>
</svg>
