<svg xmlns="http://www.w3.org/2000/svg" width="919.243" height="919.242" viewBox="0 0 919.243 919.242">
  <g id="Group_119" data-name="Group 119" transform="translate(-14076.407 19072.736)">
    <circle id="Ellipse_34" data-name="Ellipse 34" cx="325" cy="325" r="325" transform="translate(14076.407 -18613.115) rotate(-45)" fill="#4f53a2"/>
    <path id="Path_792" data-name="Path 792" d="M5828.72,2096.74H5622.35a116.7,116.7,0,0,1,60.141-53.18l3.839-1.53V1859.69h78.43V2042l3.82,1.53a116.7,116.7,0,0,1,60.141,53.21Z" transform="translate(8811.004 -20630)" fill="#498ac9"/>
    <path id="Path_793" data-name="Path 793" d="M5831.92,2079a129.142,129.142,0,0,0-55-45.18V1859.69h-12.13V2042l3.84,1.53a117.21,117.21,0,1,1-86.11,0l3.84-1.53V1859.69h-12.13v174.17A129.34,129.34,0,1,0,5831.919,2079Z" transform="translate(8811.004 -20630)" fill="#bfd8f0"/>
    <path id="Path_794" data-name="Path 794" d="M5695,2098.88a20.67,20.67,0,1,1-20.66-20.67A20.67,20.67,0,0,1,5695,2098.88Z" transform="translate(8811.004 -20630)" fill="#95c83d"/>
    <path id="Path_795" data-name="Path 795" d="M5773.76,2106.44c0,8.19-6.93,14.82-15.48,14.82s-15.49-6.63-15.49-14.82,6.94-14.81,15.49-14.81S5773.76,2098.26,5773.76,2106.44Z" transform="translate(8811.004 -20630)" fill="#95c83d"/>
    <path id="Path_796" data-name="Path 796" d="M5704.87,2045.69a17.61,17.61,0,0,0-17.61,17.61v55.37h35.21V2063.3a17.61,17.61,0,0,0-17.6-17.61Z" transform="translate(8811.004 -20630)" fill="#95c83d"/>
    <path id="Path_797" data-name="Path 797" d="M5799.61,2098.88a20.67,20.67,0,1,1-20.66-20.67,20.67,20.67,0,0,1,20.66,20.67Z" transform="translate(8811.004 -20630)" fill="#95c83d"/>
    <path id="Path_798" data-name="Path 798" d="M5828.71,2096.74H5622.34a117.22,117.22,0,1,0,206.37,0Z" transform="translate(8811.004 -20630)" fill="#95c83d"/>
    <path id="Path_799" data-name="Path 799" d="M5740,2150.42a20.23,20.23,0,1,1-20.23-20.23A20.23,20.23,0,0,1,5740,2150.42Z" transform="translate(8811.004 -20630)" fill="#d1df6d"/>
    <path id="Path_800" data-name="Path 800" d="M5273.88,1702.01h-26.69l-4.3-294.17h35.29Z" transform="translate(9276.004 -20219)" fill="#95c83d"/>
    <rect id="Rectangle_75" data-name="Rectangle 75" width="24.84" height="10.92" transform="translate(14502.273 -18738.311)" fill="#3e3e3d"/>
    <rect id="Rectangle_76" data-name="Rectangle 76" width="24.84" height="10.92" transform="translate(14502.273 -18692.08)" fill="#3e3e3d"/>
    <rect id="Rectangle_77" data-name="Rectangle 77" width="24.84" height="10.92" transform="translate(14502.273 -18645.859)" fill="#3e3e3d"/>
    <path id="Path_801" data-name="Path 801" d="M5313.94,1423.72H5207.12l2.07,24.97h102.69Z" transform="translate(9276.004 -20219)" fill="#bfd8f0"/>
    <path id="Path_802" data-name="Path 802" d="M5708.05,1829.35a58.623,58.623,0,0,0-5.93-23.45c-10.65-21.27-32.62-21-30-41.24,1.54-11.88,19.95-14.94,30.7-9.16,10.26,5.53,19.88,24.29,19.65,66.2Z" transform="translate(8811.004 -20630)" fill="#95c83d"/>
    <circle id="Ellipse_35" data-name="Ellipse 35" cx="7.69" cy="7.69" r="7.69" transform="translate(14464.988 -18839.596) rotate(-89.28)" fill="#95c83d"/>
    <path id="Path_803" data-name="Path 803" d="M5693.18,1814.18a4.66,4.66,0,1,1-4.66-4.65,4.66,4.66,0,0,1,4.66,4.65Z" transform="translate(8811.004 -20630)" fill="#95c83d"/>
    <path id="Path_804" data-name="Path 804" d="M5771.5,1814.18a4.66,4.66,0,1,1-4.66-4.65,4.66,4.66,0,0,1,4.66,4.65Z" transform="translate(8811.004 -20630)" fill="#95c83d"/>
    <path id="Path_805" data-name="Path 805" d="M5785.39,1767.42a13.9,13.9,0,1,1-13.89-13.89A13.9,13.9,0,0,1,5785.39,1767.42Z" transform="translate(8811.004 -20630)" fill="#95c83d"/>
    <path id="Path_806" data-name="Path 806" d="M5715.83,1758c.37-7.73,5-9.48,10.69-9.21s10.14,2.44,9.78,10.18-11.1,17.83-11.1,17.83S5715.47,1765.76,5715.83,1758Z" transform="translate(8811.004 -20630)" fill="#95c83d"/>
    <path id="Path_807" data-name="Path 807" d="M5726,1794.61c12.44-26.12,41.64-14.45,28.34,13.49-6.73,14.12-30.09,26.69-30.09,26.69S5719.23,1808.73,5726,1794.61Z" transform="translate(8811.004 -20630)" fill="#95c83d"/>
    <path id="Path_808" data-name="Path 808" d="M5792.88,2197.22a13.94,13.94,0,1,1-13.93-13.94,13.94,13.94,0,0,1,13.93,13.94Z" transform="translate(8811.004 -20630)" fill="#d1df6d"/>
  </g>
</svg>
